<?xml version="1.0" encoding="utf-8"?>
<!-- Generator: Adobe Illustrator 23.0.3, SVG Export Plug-In . SVG Version: 6.00 Build 0)  -->
<svg version="1.1" id="Layer_1" xmlns="http://www.w3.org/2000/svg" xmlns:xlink="http://www.w3.org/1999/xlink" x="0px" y="0px"
	 viewBox="0 0 200 200" style="enable-background:new 0 0 200 200;" xml:space="preserve">
<path d="M0,100C0,44.85,44.85,0,100,0c55.15,0,100,44.85,100,100s-44.85,100-100,100C44.85,200,0,155.15,0,100L0,100z M49.47,151.49
	c1.11,1.48,3.51,1.29,5.54-0.37c4.43-3.51,8.68-6.28,16.8-6.28c15.32,0,27.51,9.6,45.79,9.6c14.03,0.18,22.89-5.17,27.88-12.37
	c3.88-5.54,5.72-13.11,5.72-19.02c0-8.31-4.8-13.85-13.11-13.85c-7.94,0-11.44,4.06-11.82,9.97c-0.18,2.4-0.18,7.02-1.66,9.23
	c-1.48,2.4-4.25,3.14-7.57,3.14c-8.68,0-19.02-7.01-30.46-7.01h-1.66l74.4-60.19c1.29-0.93,1.85-3.14,0.37-4.25l-11.45-13.48
	c-2.03-1.85-3.51-1.66-5.54,0c-3.88,3.14-7.57,6.28-15.51,6.28c-12.93,0-26.77-8.12-44.86-8.12c-12.92,0-20.13,4.8-25.11,9.97
	c-4.8,5.17-8.12,13.48-8.12,21.42c0,8.12,4.8,13.29,12.74,13.29c7.2,0,11.45-4.06,11.45-9.78c0-3.32,0.18-6.28,1.66-8.49
	c1.29-2.21,4.62-4.25,9.23-4.25c7.2,0,20.86,4.98,29.36,4.98h0.55l-75.33,59.82c-1.48,1.11-1.48,3.69-0.55,4.98L49.47,151.49z"/>
</svg>
